<?xml version="1.0" encoding="UTF-8"?>
<svg width="20px" height="12px" viewBox="0 0 20 12" version="1.1" xmlns="http://www.w3.org/2000/svg" xmlns:xlink="http://www.w3.org/1999/xlink">
    <g id="Page-1" stroke="none" stroke-width="1" fill="none" fill-rule="evenodd">
        <g id="Artboard" transform="translate(-836.000000, -2528.000000)" fill="#FFD800">
            <path d="M855.702081,2533.08769 C854.475708,2531.40851 851.331267,2528 846.009269,2528 C840.707105,2528 837.537873,2531.41687 836.302409,2533.09354 C835.904912,2533.63349 835.898301,2534.37403 836.28836,2534.91899 C837.491594,2536.60068 840.593889,2540 846.009269,2540 C851.356885,2540 854.486451,2536.59567 855.705387,2534.91565 C856.099578,2534.37236 856.097925,2533.62931 855.702081,2533.08769 L855.702081,2533.08769 Z M846.001005,2538.12022 C843.750726,2538.12022 841.926868,2536.27555 841.926868,2534.00042 C841.926868,2531.72445 843.750726,2529.87978 846.001005,2529.87978 C848.250458,2529.87978 850.074317,2531.72445 850.074317,2534.00042 C850.074317,2536.27555 848.250458,2538.12022 846.001005,2538.12022 L846.001005,2538.12022 Z M848.200048,2534.00042 C848.200048,2535.22825 847.214983,2536.22456 846.001005,2536.22456 C844.786202,2536.22456 843.801963,2535.22825 843.801963,2534.00042 C843.801963,2532.77175 844.786202,2531.77628 846.001005,2531.77628 C847.214983,2531.77628 848.200048,2532.77175 848.200048,2534.00042 L848.200048,2534.00042 Z" id="eye"></path>
        </g>
    </g>
</svg>