<?xml version="1.0" encoding="UTF-8"?>
<svg width="21px" height="12px" viewBox="0 0 21 12" version="1.1" xmlns="http://www.w3.org/2000/svg" xmlns:xlink="http://www.w3.org/1999/xlink">
    <!-- Generator: Sketch 50.2 (55047) - http://www.bohemiancoding.com/sketch -->
    <title>eye</title>
    <desc>Created with Sketch.</desc>
    <defs></defs>
    <g id="Page-1" stroke="none" stroke-width="1" fill="none" fill-rule="evenodd">
        <g id="Artboard" transform="translate(-1186.000000, -3047.000000)" fill="#F7800B">
            <g id="Group-14" transform="translate(1157.000000, 2979.000000)">
                <path d="M48.9269512,73.0876924 C47.6865806,71.4085115 44.5062505,68 39.1235103,68 C33.7608301,68 30.5554251,71.4168698 29.3058604,73.0935432 C28.9038265,73.6334889 28.8971399,74.3740336 29.2916513,74.9189942 C30.5086186,76.6006826 33.6463215,80 39.1235103,80 C44.5321612,80 47.6974464,76.5956676 48.9302945,74.9156509 C49.328985,74.3723619 49.3273134,73.6293097 48.9269512,73.0876924 L48.9269512,73.0876924 Z M39.115152,78.1202201 C36.8391891,78.1202201 34.994514,76.275545 34.994514,74.0004179 C34.994514,71.724455 36.8391891,69.8797799 39.115152,69.8797799 C41.3902792,69.8797799 43.2349542,71.724455 43.2349542,74.0004179 C43.2349542,76.275545 41.3902792,78.1202201 39.115152,78.1202201 L39.115152,78.1202201 Z M41.3392936,74.0004179 C41.3392936,75.228251 40.3429851,76.2245594 39.115152,76.2245594 C37.8864831,76.2245594 36.8910105,75.228251 36.8910105,74.0004179 C36.8910105,72.771749 37.8864831,71.7762764 39.115152,71.7762764 C40.3429851,71.7762764 41.3392936,72.771749 41.3392936,74.0004179 L41.3392936,74.0004179 Z" id="eye"></path>
            </g>
        </g>
    </g>
</svg>