<?xml version="1.0" encoding="UTF-8"?>
<svg width="25px" height="13px" viewBox="0 0 25 13" version="1.1" xmlns="http://www.w3.org/2000/svg" xmlns:xlink="http://www.w3.org/1999/xlink">
    <!-- Generator: Sketch 50 (54983) - http://www.bohemiancoding.com/sketch -->
    <title>statsup</title>
    <desc>Created with Sketch.</desc>
    <defs>
        <linearGradient x1="50%" y1="0%" x2="50%" y2="97.8481756%" id="linearGradient-1">
            <stop stop-color="#FFAF02" offset="0%"></stop>
            <stop stop-color="#FF7902" offset="100%"></stop>
        </linearGradient>
    </defs>
    <g id="Page-1" stroke="none" stroke-width="1" fill="none" fill-rule="evenodd">
        <g id="Artboard" transform="translate(-800.000000, -1370.000000)" fill="url(#linearGradient-1)">
            <g id="Group-16" transform="translate(785.000000, 1350.000000)">
                <path d="M15.4502459,32.5678225 C14.8646365,31.9915859 14.8428624,31.0364539 15.4284717,30.4602173 L21.7120261,24.2783597 C22.1944949,23.8024852 22.9760714,23.8024852 23.4585402,24.2783597 L27.8786878,28.6277622 C28.2133218,28.9570403 28.7565289,28.9570403 29.0911628,28.6277622 L33.5961149,24.1949125 C33.9318949,23.8633791 33.9318949,23.3266107 33.5961149,22.996205 L32.0215018,21.4467937 C31.4782947,20.9122807 31.8633529,20 32.6300313,20 L38.6763623,20 C39.4075146,20 40,20.5830026 40,21.301325 L39.998854,27.2508837 C39.998854,28.006419 39.0717346,28.3841867 38.5296735,27.8508013 L36.9642284,26.3104114 C36.6273025,25.978878 36.0829493,25.978878 35.7460234,26.3092837 L29.295152,32.6422484 C28.8482094,33.0820376 28.1227872,33.0820376 27.6758447,32.6411207 L23.1915207,28.228569 C22.8568868,27.8992909 22.3136796,27.8992909 21.9790457,28.228569 L17.5703581,32.5678225 C16.9847488,33.1440592 16.0347093,33.1440592 15.4502459,32.5678225" id="statsup"></path>
            </g>
        </g>
    </g>
</svg>