<?xml version="1.0" encoding="UTF-8"?>
<svg width="28px" height="28px" viewBox="0 0 28 28" version="1.1" xmlns="http://www.w3.org/2000/svg" xmlns:xlink="http://www.w3.org/1999/xlink">
    <!-- Generator: Sketch 50.2 (55047) - http://www.bohemiancoding.com/sketch -->
    <title>creditcard</title>
    <desc>Created with Sketch.</desc>
    <defs>
        <linearGradient x1="50%" y1="0%" x2="50%" y2="97.8481756%" id="linearGradient-1">
            <stop stop-color="#FFAF02" offset="0%"></stop>
            <stop stop-color="#FF7902" offset="100%"></stop>
        </linearGradient>
    </defs>
    <g id="Page-1" stroke="none" stroke-width="1" fill="none" fill-rule="evenodd">
        <g id="Artboard" transform="translate(-810.000000, -4642.000000)" fill="url(#linearGradient-1)">
            <path d="M828.702997,4668.14421 L827.832972,4669.01551 C827.053654,4669.79483 825.791414,4669.79483 825.012095,4669.01551 L810.584489,4654.5879 C809.80517,4653.80859 809.80517,4652.54635 810.584489,4651.76703 L811.455792,4650.897 L828.702997,4668.14421 L828.702997,4668.14421 Z M837.017428,4659.82978 L830.911917,4665.93657 L813.663434,4648.68808 L819.770223,4642.58257 C820.546986,4641.80581 821.80667,4641.80581 822.583433,4642.58257 L837.017428,4657.01657 C837.794191,4657.79333 837.794191,4659.05301 837.017428,4659.82978 L837.017428,4659.82978 Z M822.794233,4649.19911 C823.307816,4648.68425 823.307816,4647.85 822.794233,4647.33514 L821.551156,4646.09334 C821.037573,4645.57848 820.203319,4645.57848 819.688458,4646.09334 L818.446659,4647.33514 C817.931798,4647.85 817.931798,4648.68425 818.446659,4649.19911 L819.688458,4650.44091 C820.203319,4650.95577 821.037573,4650.95577 821.551156,4650.44091 L822.794233,4649.19911 L822.794233,4649.19911 Z" id="creditcard"></path>
        </g>
    </g>
</svg>