<?xml version="1.0" encoding="UTF-8"?>
<svg width="51px" height="51px" viewBox="0 0 51 51" version="1.1" xmlns="http://www.w3.org/2000/svg" xmlns:xlink="http://www.w3.org/1999/xlink">
    <!-- Generator: Sketch 50.2 (55047) - http://www.bohemiancoding.com/sketch -->
    <title>dashboard</title>
    <desc>Created with Sketch.</desc>
    <defs></defs>
    <g id="Page-1" stroke="none" stroke-width="1" fill="none" fill-rule="evenodd" opacity="0.706974638">
        <g id="Artboard" transform="translate(-441.000000, -5553.000000)" fill="#FFD688">
            <path d="M466.501061,5553 C452.417752,5553 441,5564.41563 441,5578.49894 C441,5592.58225 452.417752,5604 466.501061,5604 C480.58437,5604 492.002122,5592.58225 492.002122,5578.49894 C492.002122,5564.41563 480.58437,5553 466.501061,5553 L466.501061,5553 Z M465.051558,5596.50206 C463.451375,5596.07124 462.133453,5594.78515 461.672922,5593.19134 C461.051101,5591.04573 461.838459,5589.03808 463.315551,5587.84961 C463.964962,5587.32754 464.37668,5586.56989 464.37668,5585.73796 L464.37668,5577.48874 C464.37668,5576.35334 465.29774,5575.43227 466.433149,5575.43227 C467.568557,5575.43227 468.487495,5576.35334 468.487495,5577.48874 L468.487495,5585.73372 C468.487495,5586.57626 468.914069,5587.3339 469.569847,5587.86659 C470.688278,5588.77492 471.405601,5590.15863 471.405601,5591.71424 C471.405601,5594.91037 468.391994,5597.4019 465.051558,5596.50206 L465.051558,5596.50206 Z" id="dashboard"></path>
        </g>
    </g>
</svg>