<?xml version="1.0" encoding="UTF-8"?>
<svg width="20px" height="23px" viewBox="0 0 20 23" version="1.1" xmlns="http://www.w3.org/2000/svg" xmlns:xlink="http://www.w3.org/1999/xlink">
    <!-- Generator: Sketch 50.2 (55047) - http://www.bohemiancoding.com/sketch -->
    <title>barchart</title>
    <desc>Created with Sketch.</desc>
    <defs></defs>
    <g id="Page-1" stroke="none" stroke-width="1" fill="none" fill-rule="evenodd">
        <g id="Artboard" transform="translate(-384.000000, -969.000000)" fill="#24B47E">
            <path d="M385.225429,992 C384.54894,992 384,991.472211 384,990.820054 L384,987.179946 C384,986.527789 384.54894,986 385.225429,986 L387.774571,986 C388.451867,986 389,986.527789 389,987.179946 L389,990.820054 C389,991.472211 388.451867,992 387.774571,992 L385.225429,992 Z M392.225429,992 C391.54894,992 391,991.310447 391,990.458407 L391,970.541593 C391,969.690569 391.54894,969 392.225429,969 L394.774571,969 C395.45106,969 396,969.690569 396,970.541593 L396,990.458407 C396,991.310447 395.45106,992 394.774571,992 L392.225429,992 Z M400.225741,992 C399.548719,992 399,991.284463 399,990.400316 L399,977.599684 C399,976.716591 399.548719,976 400.225741,976 L402.774259,976 C403.451281,976 404,976.716591 404,977.599684 L404,990.400316 C404,991.284463 403.451281,992 402.774259,992 L400.225741,992 Z" id="barchart"></path>
        </g>
    </g>
</svg>