<?xml version="1.0" encoding="UTF-8"?>
<svg width="197px" height="43px" viewBox="0 0 197 43" version="1.1" xmlns="http://www.w3.org/2000/svg" xmlns:xlink="http://www.w3.org/1999/xlink">
    <!-- Generator: Sketch 49 (51002) - http://www.bohemiancoding.com/sketch -->
    <title>Group 4</title>
    <desc>Created with Sketch.</desc>
    <defs></defs>
    <g id="Page-1" stroke="none" stroke-width="1" fill="none" fill-rule="evenodd">
        <g id="Group-4">
            <path d="M58.764,29 L55.816,13.6 L58.456,13.6 L60.546,24.446 L60.59,24.446 L64.242,13.6 L65.716,13.6 L69.346,24.446 L69.39,24.446 L71.48,13.6 L74.076,13.6 L71.128,29 L68.422,29 L64.946,18.44 L64.902,18.44 L61.492,29 L58.764,29 Z M81.53,26.932 C82.6886724,26.932 83.6309963,26.466338 84.357,25.535 C85.0830036,24.603662 85.446,23.1553432 85.446,21.19 C85.446,19.4006577 85.0720037,18.0366714 84.324,17.098 C83.5759962,16.1593286 82.6446722,15.69 81.53,15.69 C80.400661,15.69 79.4620037,16.155662 78.714,17.087 C77.9659962,18.018338 77.592,19.3786577 77.592,21.168 C77.592,23.1333432 77.958663,24.5853286 78.692,25.524 C79.425337,26.4626714 80.3713275,26.932 81.53,26.932 Z M81.53,29.33 C80.6499956,29.33 79.8250038,29.1760015 79.055,28.868 C78.2849961,28.5599985 77.5810032,28.0943365 76.943,27.471 C76.3049968,26.8476635 75.8026685,25.9970054 75.436,24.919 C75.0693315,23.8409946 74.886,22.5906738 74.886,21.168 C74.886,18.6599875 75.5386601,16.7166736 76.844,15.338 C78.1493398,13.9593264 79.7113242,13.27 81.53,13.27 C83.334009,13.27 84.8849935,13.9629931 86.183,15.349 C87.4810065,16.7350069 88.13,18.6819875 88.13,21.19 C88.13,22.6126738 87.9466685,23.8629946 87.58,24.941 C87.2133315,26.0190054 86.7146698,26.8696635 86.084,27.493 C85.4533301,28.1163365 84.7566704,28.5783318 83.994,28.879 C83.2313295,29.1796682 82.4100044,29.33 81.53,29.33 Z M90.48,29 L90.48,13.6 L96.618,13.6 C98.2020079,13.6 99.4743285,14.0216625 100.435,14.865 C101.395671,15.7083376 101.876,16.8853258 101.876,18.396 C101.876,19.5693392 101.568003,20.5373295 100.952,21.3 C100.335997,22.0626705 99.5000053,22.5833319 98.444,22.862 L101.766,29 L98.884,29 L95.76,23.082 L93.076,23.082 L93.076,29 L90.48,29 Z M93.076,20.838 L96.42,20.838 C98.3120094,20.838 99.258,20.0240081 99.258,18.396 C99.258,16.7679919 98.3120094,15.954 96.42,15.954 L93.076,15.954 L93.076,20.838 Z M106.602,26.602 L108.868,26.602 C110.158673,26.602 111.159663,26.2133372 111.871,25.436 C112.582337,24.6586628 112.938,23.2726766 112.938,21.278 C112.938,19.4886577 112.582337,18.1613377 111.871,17.296 C111.159663,16.4306623 110.202673,15.998 109,15.998 L106.602,15.998 L106.602,26.602 Z M104.006,29 L104.006,13.6 L109.044,13.6 C109.924004,13.6 110.752663,13.7539985 111.53,14.062 C112.307337,14.3700015 113.01133,14.8246637 113.642,15.426 C114.27267,16.0273363 114.774998,16.8303283 115.149,17.835 C115.523002,18.8396717 115.71,19.9873269 115.71,21.278 C115.71,22.686007 115.519335,23.9106615 115.138,24.952 C114.756665,25.9933385 114.236003,26.7963305 113.576,27.361 C112.915997,27.9256695 112.201004,28.3399987 111.431,28.604 C110.660996,28.8680013 109.821338,29 108.912,29 L104.006,29 Z M117.84,29 L117.84,13.6 L124.088,13.6 C125.672008,13.6 126.951662,14.0436622 127.927,14.931 C128.902338,15.8183378 129.39,17.0099925 129.39,18.506 C129.39,19.6206722 129.100336,20.5666628 128.521,21.344 C127.941664,22.1213372 127.146005,22.6713317 126.134,22.994 L129.412,29 L126.2,29 L123.098,23.28 L120.81,23.28 L120.81,29 L117.84,29 Z M120.81,20.706 L123.846,20.706 C125.532675,20.706 126.376,19.972674 126.376,18.506 C126.376,17.0246593 125.532675,16.284 123.846,16.284 L120.81,16.284 L120.81,20.706 Z M140.254,29 L139.374,26.47 L133.5,26.47 L132.62,29 L129.672,29 L135.238,13.6 L137.768,13.6 L143.312,29 L140.254,29 Z M136.426,18 L134.336,24.006 L138.538,24.006 L136.47,18 L136.426,18 Z M144.672,29 L144.672,13.6 L147.642,13.6 L153.274,23.698 L153.318,23.698 L153.318,13.6 L156.31,13.6 L156.31,29 L153.384,29 L147.686,18.902 L147.642,18.902 L147.642,29 L144.672,29 Z M159.1,29 L159.1,13.6 L162.07,13.6 L162.07,20.068 L162.114,20.068 L167.57,13.6 L171.024,13.6 L165.26,20.398 L171.486,29 L167.9,29 L163.258,22.664 L163.214,22.664 L162.07,24.182 L162.07,29 L159.1,29 Z M172.516,29 L172.516,13.6 L182.262,13.6 L182.262,16.35 L175.486,16.35 L175.486,19.804 L181.646,19.804 L181.646,22.444 L175.486,22.444 L175.486,26.25 L182.262,26.25 L182.262,29 L172.516,29 Z M184.722,29 L184.722,13.6 L190.97,13.6 C192.554008,13.6 193.833662,14.0436622 194.809,14.931 C195.784338,15.8183378 196.272,17.0099925 196.272,18.506 C196.272,19.6206722 195.982336,20.5666628 195.403,21.344 C194.823664,22.1213372 194.028005,22.6713317 193.016,22.994 L196.294,29 L193.082,29 L189.98,23.28 L187.692,23.28 L187.692,29 L184.722,29 Z M187.692,20.706 L190.728,20.706 C192.414675,20.706 193.258,19.972674 193.258,18.506 C193.258,17.0246593 192.414675,16.284 190.728,16.284 L187.692,16.284 L187.692,20.706 Z" id="WORDRANKER" fill="#FFFFFF"></path>
            <rect id="Rectangle-11" fill="#FFFFFF" x="0" y="0" width="43" height="43" rx="7"></rect>
            <rect id="Rectangle-24" fill="#F78C13" x="7" y="8" width="7" height="27"></rect>
            <rect id="Rectangle-24-Copy-2" fill="#F9BF31" x="30" y="8" width="7" height="27"></rect>
            <rect id="Rectangle-24-Copy" fill="#F8A521" x="18" y="15" width="7" height="16"></rect>
        </g>
    </g>
</svg>